# xmcd CD database file
#
# Track frame offsets:
#	150
#	23825
#	37787
#	57630
#
# Disc length: 991 seconds
#
# Revision: 1
# Processed by: cddbd v1.5PL3 Copyright (c) Steve Scherf et al.
# Submitted via: CDex 1.50beta10
#
DISCID=2a03dd04
DTITLE=森 広隆 - ゼロ地点
DYEAR=2001
DGENRE=
TTITLE0=ただ時が経っただけで
TTITLE1=ゼロ地点
TTITLE2=Fuzz Master
TTITLE3=雨は止まない
EXTD=YEAR: 2001
EXTT0=
EXTT1=
EXTT2=
EXTT3=
PLAYORDER=
